<mxfile host="app.diagrams.net" agent="Mozilla/5.0 (Windows NT 10.0; Win64; x64) AppleWebKit/537.36 (KHTML, like Gecko) Chrome/126.0.0.0 Safari/537.36" version="24.7.4">
  <diagram id="cDJHLErJSP3cd4u-dUqy" name="Page-1">
    <mxGraphModel dx="1908" dy="1184" grid="1" gridSize="10" guides="1" tooltips="1" connect="1" arrows="1" fold="1" page="1" pageScale="1" pageWidth="850" pageHeight="1100" math="0" shadow="0">
      <root>
        <mxCell id="0" />
        <mxCell id="1" parent="0" />
        <mxCell id="E2kGEfoMNPz0uAjkgJGs-3" value="Mahasiswa" style="rounded=1;whiteSpace=wrap;html=1;" vertex="1" parent="1">
          <mxGeometry x="200" y="270" width="120" height="60" as="geometry" />
        </mxCell>
        <mxCell id="E2kGEfoMNPz0uAjkgJGs-4" value="mendatar" style="rhombus;whiteSpace=wrap;html=1;" vertex="1" parent="1">
          <mxGeometry x="500" y="260" width="80" height="80" as="geometry" />
        </mxCell>
        <mxCell id="E2kGEfoMNPz0uAjkgJGs-5" value="" style="endArrow=none;html=1;rounded=0;exitX=1;exitY=0.5;exitDx=0;exitDy=0;entryX=0;entryY=0.5;entryDx=0;entryDy=0;" edge="1" parent="1" source="E2kGEfoMNPz0uAjkgJGs-3" target="E2kGEfoMNPz0uAjkgJGs-4">
          <mxGeometry width="50" height="50" relative="1" as="geometry">
            <mxPoint x="420" y="420" as="sourcePoint" />
            <mxPoint x="470" y="370" as="targetPoint" />
          </mxGeometry>
        </mxCell>
        <mxCell id="E2kGEfoMNPz0uAjkgJGs-6" value="anggota&lt;div&gt;perpustakaan&lt;/div&gt;" style="rounded=1;whiteSpace=wrap;html=1;" vertex="1" parent="1">
          <mxGeometry x="810" y="270" width="120" height="60" as="geometry" />
        </mxCell>
        <mxCell id="E2kGEfoMNPz0uAjkgJGs-7" value="" style="endArrow=none;html=1;rounded=0;entryX=0;entryY=0.5;entryDx=0;entryDy=0;exitX=1;exitY=0.5;exitDx=0;exitDy=0;" edge="1" parent="1" source="E2kGEfoMNPz0uAjkgJGs-4" target="E2kGEfoMNPz0uAjkgJGs-6">
          <mxGeometry width="50" height="50" relative="1" as="geometry">
            <mxPoint x="460" y="320" as="sourcePoint" />
            <mxPoint x="510" y="270" as="targetPoint" />
          </mxGeometry>
        </mxCell>
        <mxCell id="E2kGEfoMNPz0uAjkgJGs-9" value="alamat" style="ellipse;whiteSpace=wrap;html=1;" vertex="1" parent="1">
          <mxGeometry x="120" y="370" width="75" height="50" as="geometry" />
        </mxCell>
        <mxCell id="E2kGEfoMNPz0uAjkgJGs-10" value="jurusan" style="ellipse;whiteSpace=wrap;html=1;" vertex="1" parent="1">
          <mxGeometry x="70" y="275" width="75" height="50" as="geometry" />
        </mxCell>
        <mxCell id="E2kGEfoMNPz0uAjkgJGs-11" value="nim" style="ellipse;whiteSpace=wrap;html=1;" vertex="1" parent="1">
          <mxGeometry x="120" y="190" width="75" height="50" as="geometry" />
        </mxCell>
        <mxCell id="E2kGEfoMNPz0uAjkgJGs-12" value="" style="endArrow=none;html=1;rounded=0;exitX=0.5;exitY=0;exitDx=0;exitDy=0;entryX=0;entryY=0.75;entryDx=0;entryDy=0;" edge="1" parent="1" source="E2kGEfoMNPz0uAjkgJGs-9" target="E2kGEfoMNPz0uAjkgJGs-3">
          <mxGeometry width="50" height="50" relative="1" as="geometry">
            <mxPoint x="360" y="320" as="sourcePoint" />
            <mxPoint x="410" y="270" as="targetPoint" />
          </mxGeometry>
        </mxCell>
        <mxCell id="E2kGEfoMNPz0uAjkgJGs-13" value="" style="endArrow=none;html=1;rounded=0;entryX=1;entryY=0.5;entryDx=0;entryDy=0;exitX=0;exitY=0.5;exitDx=0;exitDy=0;" edge="1" parent="1" source="E2kGEfoMNPz0uAjkgJGs-3" target="E2kGEfoMNPz0uAjkgJGs-10">
          <mxGeometry width="50" height="50" relative="1" as="geometry">
            <mxPoint x="360" y="320" as="sourcePoint" />
            <mxPoint x="410" y="270" as="targetPoint" />
          </mxGeometry>
        </mxCell>
        <mxCell id="E2kGEfoMNPz0uAjkgJGs-15" value="" style="endArrow=none;html=1;rounded=0;exitX=0.5;exitY=1;exitDx=0;exitDy=0;entryX=0;entryY=0.25;entryDx=0;entryDy=0;" edge="1" parent="1" source="E2kGEfoMNPz0uAjkgJGs-11" target="E2kGEfoMNPz0uAjkgJGs-3">
          <mxGeometry width="50" height="50" relative="1" as="geometry">
            <mxPoint x="230" y="240" as="sourcePoint" />
            <mxPoint x="280" y="190" as="targetPoint" />
          </mxGeometry>
        </mxCell>
        <mxCell id="E2kGEfoMNPz0uAjkgJGs-22" value="" style="shape=table;startSize=0;container=1;collapsible=0;childLayout=tableLayout;fontSize=11;fillColor=none;strokeColor=none;" vertex="1" parent="1">
          <mxGeometry x="290" y="260" width="60" height="60" as="geometry" />
        </mxCell>
        <mxCell id="E2kGEfoMNPz0uAjkgJGs-26" value="" style="line;strokeWidth=2;html=1;" vertex="1" parent="1">
          <mxGeometry x="147.5" y="220" width="20" height="10" as="geometry" />
        </mxCell>
        <mxCell id="E2kGEfoMNPz0uAjkgJGs-28" value="nama" style="ellipse;whiteSpace=wrap;html=1;" vertex="1" parent="1">
          <mxGeometry x="222.5" y="180" width="75" height="50" as="geometry" />
        </mxCell>
        <mxCell id="E2kGEfoMNPz0uAjkgJGs-29" value="nama_depan" style="ellipse;whiteSpace=wrap;html=1;" vertex="1" parent="1">
          <mxGeometry x="110" y="100" width="110" height="50" as="geometry" />
        </mxCell>
        <mxCell id="E2kGEfoMNPz0uAjkgJGs-30" value="nama_belakang" style="ellipse;whiteSpace=wrap;html=1;" vertex="1" parent="1">
          <mxGeometry x="315" y="100" width="110" height="50" as="geometry" />
        </mxCell>
        <mxCell id="E2kGEfoMNPz0uAjkgJGs-31" value="nama_tengah" style="ellipse;whiteSpace=wrap;html=1;" vertex="1" parent="1">
          <mxGeometry x="205" y="60" width="110" height="50" as="geometry" />
        </mxCell>
        <mxCell id="E2kGEfoMNPz0uAjkgJGs-32" value="" style="endArrow=none;html=1;rounded=0;entryX=0.5;entryY=1;entryDx=0;entryDy=0;exitX=0.5;exitY=0;exitDx=0;exitDy=0;" edge="1" parent="1" source="E2kGEfoMNPz0uAjkgJGs-28" target="E2kGEfoMNPz0uAjkgJGs-31">
          <mxGeometry width="50" height="50" relative="1" as="geometry">
            <mxPoint x="310" y="320" as="sourcePoint" />
            <mxPoint x="360" y="270" as="targetPoint" />
          </mxGeometry>
        </mxCell>
        <mxCell id="E2kGEfoMNPz0uAjkgJGs-33" value="" style="endArrow=none;html=1;rounded=0;entryX=0.615;entryY=0.033;entryDx=0;entryDy=0;entryPerimeter=0;exitX=0;exitY=1;exitDx=0;exitDy=0;" edge="1" parent="1" source="E2kGEfoMNPz0uAjkgJGs-30" target="E2kGEfoMNPz0uAjkgJGs-28">
          <mxGeometry width="50" height="50" relative="1" as="geometry">
            <mxPoint x="310" y="320" as="sourcePoint" />
            <mxPoint x="360" y="270" as="targetPoint" />
          </mxGeometry>
        </mxCell>
        <mxCell id="E2kGEfoMNPz0uAjkgJGs-34" value="" style="endArrow=none;html=1;rounded=0;entryX=1;entryY=1;entryDx=0;entryDy=0;" edge="1" parent="1" target="E2kGEfoMNPz0uAjkgJGs-29">
          <mxGeometry width="50" height="50" relative="1" as="geometry">
            <mxPoint x="250" y="180" as="sourcePoint" />
            <mxPoint x="360" y="270" as="targetPoint" />
          </mxGeometry>
        </mxCell>
        <mxCell id="E2kGEfoMNPz0uAjkgJGs-35" value="" style="endArrow=none;html=1;rounded=0;entryX=0.5;entryY=1;entryDx=0;entryDy=0;exitX=0.5;exitY=0;exitDx=0;exitDy=0;" edge="1" parent="1" source="E2kGEfoMNPz0uAjkgJGs-3" target="E2kGEfoMNPz0uAjkgJGs-28">
          <mxGeometry width="50" height="50" relative="1" as="geometry">
            <mxPoint x="310" y="320" as="sourcePoint" />
            <mxPoint x="360" y="270" as="targetPoint" />
          </mxGeometry>
        </mxCell>
        <mxCell id="E2kGEfoMNPz0uAjkgJGs-36" value="alamat" style="ellipse;whiteSpace=wrap;html=1;" vertex="1" parent="1">
          <mxGeometry x="410" y="160" width="75" height="50" as="geometry" />
        </mxCell>
        <mxCell id="E2kGEfoMNPz0uAjkgJGs-37" value="jurusan" style="ellipse;whiteSpace=wrap;html=1;" vertex="1" parent="1">
          <mxGeometry x="450" y="100" width="75" height="50" as="geometry" />
        </mxCell>
        <mxCell id="E2kGEfoMNPz0uAjkgJGs-38" value="nim" style="ellipse;whiteSpace=wrap;html=1;" vertex="1" parent="1">
          <mxGeometry x="560" y="100" width="75" height="50" as="geometry" />
        </mxCell>
        <mxCell id="E2kGEfoMNPz0uAjkgJGs-39" value="nama" style="ellipse;whiteSpace=wrap;html=1;" vertex="1" parent="1">
          <mxGeometry x="610" y="160" width="75" height="50" as="geometry" />
        </mxCell>
        <mxCell id="E2kGEfoMNPz0uAjkgJGs-40" value="" style="endArrow=none;html=1;rounded=0;entryX=0.5;entryY=0;entryDx=0;entryDy=0;exitX=1;exitY=1;exitDx=0;exitDy=0;" edge="1" parent="1" source="E2kGEfoMNPz0uAjkgJGs-36" target="E2kGEfoMNPz0uAjkgJGs-4">
          <mxGeometry width="50" height="50" relative="1" as="geometry">
            <mxPoint x="310" y="320" as="sourcePoint" />
            <mxPoint x="360" y="270" as="targetPoint" />
          </mxGeometry>
        </mxCell>
        <mxCell id="E2kGEfoMNPz0uAjkgJGs-41" value="" style="endArrow=none;html=1;rounded=0;entryX=0.5;entryY=0;entryDx=0;entryDy=0;exitX=0.667;exitY=1;exitDx=0;exitDy=0;exitPerimeter=0;" edge="1" parent="1" source="E2kGEfoMNPz0uAjkgJGs-37" target="E2kGEfoMNPz0uAjkgJGs-4">
          <mxGeometry width="50" height="50" relative="1" as="geometry">
            <mxPoint x="310" y="320" as="sourcePoint" />
            <mxPoint x="360" y="270" as="targetPoint" />
          </mxGeometry>
        </mxCell>
        <mxCell id="E2kGEfoMNPz0uAjkgJGs-42" value="" style="endArrow=none;html=1;rounded=0;entryX=0.5;entryY=0;entryDx=0;entryDy=0;exitX=0.5;exitY=1;exitDx=0;exitDy=0;" edge="1" parent="1" source="E2kGEfoMNPz0uAjkgJGs-38" target="E2kGEfoMNPz0uAjkgJGs-4">
          <mxGeometry width="50" height="50" relative="1" as="geometry">
            <mxPoint x="310" y="320" as="sourcePoint" />
            <mxPoint x="360" y="270" as="targetPoint" />
          </mxGeometry>
        </mxCell>
        <mxCell id="E2kGEfoMNPz0uAjkgJGs-43" value="" style="endArrow=none;html=1;rounded=0;entryX=0.5;entryY=0;entryDx=0;entryDy=0;exitX=0.4;exitY=1;exitDx=0;exitDy=0;exitPerimeter=0;" edge="1" parent="1" source="E2kGEfoMNPz0uAjkgJGs-39" target="E2kGEfoMNPz0uAjkgJGs-4">
          <mxGeometry width="50" height="50" relative="1" as="geometry">
            <mxPoint x="310" y="320" as="sourcePoint" />
            <mxPoint x="360" y="270" as="targetPoint" />
          </mxGeometry>
        </mxCell>
        <mxCell id="E2kGEfoMNPz0uAjkgJGs-44" value="nomor_anggota" style="ellipse;whiteSpace=wrap;html=1;" vertex="1" parent="1">
          <mxGeometry x="700" y="160" width="130" height="50" as="geometry" />
        </mxCell>
        <mxCell id="E2kGEfoMNPz0uAjkgJGs-45" value="nama" style="ellipse;whiteSpace=wrap;html=1;" vertex="1" parent="1">
          <mxGeometry x="740" y="80" width="120" height="60" as="geometry" />
        </mxCell>
        <mxCell id="E2kGEfoMNPz0uAjkgJGs-46" value="jurusan" style="ellipse;whiteSpace=wrap;html=1;" vertex="1" parent="1">
          <mxGeometry x="890" y="80" width="120" height="60" as="geometry" />
        </mxCell>
        <mxCell id="E2kGEfoMNPz0uAjkgJGs-47" value="masa_berlaku" style="ellipse;whiteSpace=wrap;html=1;" vertex="1" parent="1">
          <mxGeometry x="920" y="160" width="130" height="50" as="geometry" />
        </mxCell>
        <mxCell id="E2kGEfoMNPz0uAjkgJGs-48" value="" style="endArrow=none;html=1;rounded=0;entryX=0.5;entryY=0;entryDx=0;entryDy=0;exitX=0.615;exitY=1;exitDx=0;exitDy=0;exitPerimeter=0;" edge="1" parent="1" source="E2kGEfoMNPz0uAjkgJGs-44" target="E2kGEfoMNPz0uAjkgJGs-6">
          <mxGeometry width="50" height="50" relative="1" as="geometry">
            <mxPoint x="780" y="320" as="sourcePoint" />
            <mxPoint x="830" y="270" as="targetPoint" />
          </mxGeometry>
        </mxCell>
        <mxCell id="E2kGEfoMNPz0uAjkgJGs-49" value="" style="endArrow=none;html=1;rounded=0;entryX=0.5;entryY=0;entryDx=0;entryDy=0;exitX=0.728;exitY=0.949;exitDx=0;exitDy=0;exitPerimeter=0;" edge="1" parent="1" source="E2kGEfoMNPz0uAjkgJGs-45" target="E2kGEfoMNPz0uAjkgJGs-6">
          <mxGeometry width="50" height="50" relative="1" as="geometry">
            <mxPoint x="780" y="320" as="sourcePoint" />
            <mxPoint x="830" y="270" as="targetPoint" />
          </mxGeometry>
        </mxCell>
        <mxCell id="E2kGEfoMNPz0uAjkgJGs-50" value="" style="endArrow=none;html=1;rounded=0;entryX=0.5;entryY=0;entryDx=0;entryDy=0;exitX=0.334;exitY=0.985;exitDx=0;exitDy=0;exitPerimeter=0;" edge="1" parent="1" source="E2kGEfoMNPz0uAjkgJGs-46" target="E2kGEfoMNPz0uAjkgJGs-6">
          <mxGeometry width="50" height="50" relative="1" as="geometry">
            <mxPoint x="780" y="320" as="sourcePoint" />
            <mxPoint x="830" y="270" as="targetPoint" />
          </mxGeometry>
        </mxCell>
        <mxCell id="E2kGEfoMNPz0uAjkgJGs-51" value="" style="endArrow=none;html=1;rounded=0;entryX=0.5;entryY=0;entryDx=0;entryDy=0;" edge="1" parent="1" source="E2kGEfoMNPz0uAjkgJGs-47" target="E2kGEfoMNPz0uAjkgJGs-6">
          <mxGeometry width="50" height="50" relative="1" as="geometry">
            <mxPoint x="940" y="220" as="sourcePoint" />
            <mxPoint x="830" y="270" as="targetPoint" />
          </mxGeometry>
        </mxCell>
        <mxCell id="E2kGEfoMNPz0uAjkgJGs-52" value="meminjam" style="rhombus;whiteSpace=wrap;html=1;" vertex="1" parent="1">
          <mxGeometry x="825" y="480" width="90" height="90" as="geometry" />
        </mxCell>
        <mxCell id="E2kGEfoMNPz0uAjkgJGs-53" value="1" style="text;html=1;align=center;verticalAlign=middle;resizable=0;points=[];autosize=1;strokeColor=none;fillColor=none;" vertex="1" parent="1">
          <mxGeometry x="855" y="348" width="30" height="30" as="geometry" />
        </mxCell>
        <mxCell id="E2kGEfoMNPz0uAjkgJGs-54" value="" style="endArrow=none;html=1;rounded=0;entryX=0.5;entryY=1;entryDx=0;entryDy=0;" edge="1" parent="1" source="E2kGEfoMNPz0uAjkgJGs-53" target="E2kGEfoMNPz0uAjkgJGs-6">
          <mxGeometry width="50" height="50" relative="1" as="geometry">
            <mxPoint x="780" y="320" as="sourcePoint" />
            <mxPoint x="830" y="270" as="targetPoint" />
          </mxGeometry>
        </mxCell>
        <mxCell id="E2kGEfoMNPz0uAjkgJGs-55" value="" style="endArrow=none;html=1;rounded=0;exitX=0.5;exitY=0;exitDx=0;exitDy=0;entryX=0.522;entryY=1.133;entryDx=0;entryDy=0;entryPerimeter=0;" edge="1" parent="1" source="E2kGEfoMNPz0uAjkgJGs-52" target="E2kGEfoMNPz0uAjkgJGs-53">
          <mxGeometry width="50" height="50" relative="1" as="geometry">
            <mxPoint x="810" y="410" as="sourcePoint" />
            <mxPoint x="870" y="380" as="targetPoint" />
          </mxGeometry>
        </mxCell>
        <mxCell id="E2kGEfoMNPz0uAjkgJGs-56" value="nomor_buku" style="ellipse;whiteSpace=wrap;html=1;" vertex="1" parent="1">
          <mxGeometry x="950" y="460" width="130" height="50" as="geometry" />
        </mxCell>
        <mxCell id="E2kGEfoMNPz0uAjkgJGs-57" value="nomor_anggota" style="ellipse;whiteSpace=wrap;html=1;" vertex="1" parent="1">
          <mxGeometry x="890" y="390" width="130" height="50" as="geometry" />
        </mxCell>
        <mxCell id="E2kGEfoMNPz0uAjkgJGs-58" value="denda" style="ellipse;whiteSpace=wrap;html=1;" vertex="1" parent="1">
          <mxGeometry x="910" y="580" width="130" height="50" as="geometry" />
        </mxCell>
        <mxCell id="E2kGEfoMNPz0uAjkgJGs-59" value="juduk_buku" style="ellipse;whiteSpace=wrap;html=1;" vertex="1" parent="1">
          <mxGeometry x="950" y="525" width="130" height="50" as="geometry" />
        </mxCell>
        <mxCell id="E2kGEfoMNPz0uAjkgJGs-60" value="" style="endArrow=none;html=1;rounded=0;exitX=0.954;exitY=0.453;exitDx=0;exitDy=0;exitPerimeter=0;entryX=0.5;entryY=1;entryDx=0;entryDy=0;" edge="1" parent="1" source="E2kGEfoMNPz0uAjkgJGs-52" target="E2kGEfoMNPz0uAjkgJGs-57">
          <mxGeometry width="50" height="50" relative="1" as="geometry">
            <mxPoint x="930" y="440" as="sourcePoint" />
            <mxPoint x="980" y="390" as="targetPoint" />
          </mxGeometry>
        </mxCell>
        <mxCell id="E2kGEfoMNPz0uAjkgJGs-61" value="" style="endArrow=none;html=1;rounded=0;exitX=1;exitY=0.5;exitDx=0;exitDy=0;entryX=0.25;entryY=0.931;entryDx=0;entryDy=0;entryPerimeter=0;" edge="1" parent="1" source="E2kGEfoMNPz0uAjkgJGs-52" target="E2kGEfoMNPz0uAjkgJGs-56">
          <mxGeometry width="50" height="50" relative="1" as="geometry">
            <mxPoint x="940" y="490" as="sourcePoint" />
            <mxPoint x="990" y="440" as="targetPoint" />
          </mxGeometry>
        </mxCell>
        <mxCell id="E2kGEfoMNPz0uAjkgJGs-62" value="" style="endArrow=none;html=1;rounded=0;exitX=0.944;exitY=0.556;exitDx=0;exitDy=0;exitPerimeter=0;" edge="1" parent="1" source="E2kGEfoMNPz0uAjkgJGs-52" target="E2kGEfoMNPz0uAjkgJGs-59">
          <mxGeometry width="50" height="50" relative="1" as="geometry">
            <mxPoint x="940" y="530" as="sourcePoint" />
            <mxPoint x="990" y="480" as="targetPoint" />
          </mxGeometry>
        </mxCell>
        <mxCell id="E2kGEfoMNPz0uAjkgJGs-63" value="" style="endArrow=none;html=1;rounded=0;exitX=0.93;exitY=0.573;exitDx=0;exitDy=0;exitPerimeter=0;entryX=0.309;entryY=0.037;entryDx=0;entryDy=0;entryPerimeter=0;" edge="1" parent="1" source="E2kGEfoMNPz0uAjkgJGs-52" target="E2kGEfoMNPz0uAjkgJGs-58">
          <mxGeometry width="50" height="50" relative="1" as="geometry">
            <mxPoint x="900" y="520" as="sourcePoint" />
            <mxPoint x="950" y="470" as="targetPoint" />
          </mxGeometry>
        </mxCell>
        <mxCell id="E2kGEfoMNPz0uAjkgJGs-64" value="kode_pinjaman" style="ellipse;whiteSpace=wrap;html=1;" vertex="1" parent="1">
          <mxGeometry x="710" y="390" width="130" height="50" as="geometry" />
        </mxCell>
        <mxCell id="E2kGEfoMNPz0uAjkgJGs-65" value="kode_pinjaman" style="ellipse;whiteSpace=wrap;html=1;" vertex="1" parent="1">
          <mxGeometry x="660" y="460" width="130" height="50" as="geometry" />
        </mxCell>
        <mxCell id="E2kGEfoMNPz0uAjkgJGs-66" value="kode_pinjaman" style="ellipse;whiteSpace=wrap;html=1;" vertex="1" parent="1">
          <mxGeometry x="670" y="540" width="130" height="50" as="geometry" />
        </mxCell>
        <mxCell id="E2kGEfoMNPz0uAjkgJGs-67" value="" style="endArrow=none;html=1;rounded=0;exitX=0.722;exitY=0.962;exitDx=0;exitDy=0;exitPerimeter=0;entryX=0.033;entryY=0.469;entryDx=0;entryDy=0;entryPerimeter=0;" edge="1" parent="1" source="E2kGEfoMNPz0uAjkgJGs-64" target="E2kGEfoMNPz0uAjkgJGs-52">
          <mxGeometry width="50" height="50" relative="1" as="geometry">
            <mxPoint x="850" y="510" as="sourcePoint" />
            <mxPoint x="900" y="460" as="targetPoint" />
          </mxGeometry>
        </mxCell>
        <mxCell id="E2kGEfoMNPz0uAjkgJGs-68" value="" style="endArrow=none;html=1;rounded=0;entryX=0;entryY=0.5;entryDx=0;entryDy=0;exitX=1;exitY=1;exitDx=0;exitDy=0;" edge="1" parent="1" source="E2kGEfoMNPz0uAjkgJGs-65" target="E2kGEfoMNPz0uAjkgJGs-52">
          <mxGeometry width="50" height="50" relative="1" as="geometry">
            <mxPoint x="810" y="550" as="sourcePoint" />
            <mxPoint x="860" y="500" as="targetPoint" />
          </mxGeometry>
        </mxCell>
        <mxCell id="E2kGEfoMNPz0uAjkgJGs-69" value="" style="endArrow=none;html=1;rounded=0;exitX=0.991;exitY=0.437;exitDx=0;exitDy=0;exitPerimeter=0;entryX=0.021;entryY=0.521;entryDx=0;entryDy=0;entryPerimeter=0;" edge="1" parent="1" source="E2kGEfoMNPz0uAjkgJGs-66" target="E2kGEfoMNPz0uAjkgJGs-52">
          <mxGeometry width="50" height="50" relative="1" as="geometry">
            <mxPoint x="810" y="550" as="sourcePoint" />
            <mxPoint x="860" y="500" as="targetPoint" />
          </mxGeometry>
        </mxCell>
        <mxCell id="E2kGEfoMNPz0uAjkgJGs-70" value="Many" style="text;html=1;align=center;verticalAlign=middle;resizable=0;points=[];autosize=1;strokeColor=none;fillColor=none;" vertex="1" parent="1">
          <mxGeometry x="845" y="590" width="50" height="30" as="geometry" />
        </mxCell>
        <mxCell id="E2kGEfoMNPz0uAjkgJGs-71" value="" style="endArrow=none;html=1;rounded=0;entryX=0.5;entryY=1;entryDx=0;entryDy=0;exitX=0.489;exitY=0.012;exitDx=0;exitDy=0;exitPerimeter=0;" edge="1" parent="1" source="E2kGEfoMNPz0uAjkgJGs-70" target="E2kGEfoMNPz0uAjkgJGs-52">
          <mxGeometry width="50" height="50" relative="1" as="geometry">
            <mxPoint x="780" y="670" as="sourcePoint" />
            <mxPoint x="830" y="620" as="targetPoint" />
          </mxGeometry>
        </mxCell>
        <mxCell id="E2kGEfoMNPz0uAjkgJGs-72" value="" style="endArrow=none;html=1;rounded=0;entryX=0.5;entryY=1.333;entryDx=0;entryDy=0;entryPerimeter=0;exitX=0.5;exitY=0;exitDx=0;exitDy=0;" edge="1" parent="1" source="E2kGEfoMNPz0uAjkgJGs-73" target="E2kGEfoMNPz0uAjkgJGs-70">
          <mxGeometry width="50" height="50" relative="1" as="geometry">
            <mxPoint x="770" y="690" as="sourcePoint" />
            <mxPoint x="720" y="770" as="targetPoint" />
          </mxGeometry>
        </mxCell>
        <mxCell id="E2kGEfoMNPz0uAjkgJGs-73" value="buku" style="rounded=1;whiteSpace=wrap;html=1;" vertex="1" parent="1">
          <mxGeometry x="810" y="720" width="120" height="60" as="geometry" />
        </mxCell>
        <mxCell id="E2kGEfoMNPz0uAjkgJGs-74" value="juduk_buku" style="ellipse;whiteSpace=wrap;html=1;" vertex="1" parent="1">
          <mxGeometry x="660" y="760" width="130" height="50" as="geometry" />
        </mxCell>
        <mxCell id="E2kGEfoMNPz0uAjkgJGs-75" value="jenis_buku" style="ellipse;whiteSpace=wrap;html=1;" vertex="1" parent="1">
          <mxGeometry x="920" y="830" width="130" height="50" as="geometry" />
        </mxCell>
        <mxCell id="E2kGEfoMNPz0uAjkgJGs-76" value="penerbit" style="ellipse;whiteSpace=wrap;html=1;" vertex="1" parent="1">
          <mxGeometry x="860" y="890" width="130" height="50" as="geometry" />
        </mxCell>
        <mxCell id="E2kGEfoMNPz0uAjkgJGs-77" value="pengarang" style="ellipse;whiteSpace=wrap;html=1;" vertex="1" parent="1">
          <mxGeometry x="950" y="770" width="130" height="50" as="geometry" />
        </mxCell>
        <mxCell id="E2kGEfoMNPz0uAjkgJGs-78" value="nomor_buku" style="ellipse;whiteSpace=wrap;html=1;" vertex="1" parent="1">
          <mxGeometry x="685" y="830" width="130" height="50" as="geometry" />
        </mxCell>
        <mxCell id="E2kGEfoMNPz0uAjkgJGs-79" value="tahun_terbit" style="ellipse;whiteSpace=wrap;html=1;" vertex="1" parent="1">
          <mxGeometry x="720" y="890" width="130" height="50" as="geometry" />
        </mxCell>
        <mxCell id="E2kGEfoMNPz0uAjkgJGs-80" value="" style="endArrow=none;html=1;rounded=0;entryX=0.367;entryY=1.008;entryDx=0;entryDy=0;entryPerimeter=0;exitX=0.99;exitY=0.452;exitDx=0;exitDy=0;exitPerimeter=0;" edge="1" parent="1" source="E2kGEfoMNPz0uAjkgJGs-74" target="E2kGEfoMNPz0uAjkgJGs-73">
          <mxGeometry width="50" height="50" relative="1" as="geometry">
            <mxPoint x="670" y="700" as="sourcePoint" />
            <mxPoint x="720" y="650" as="targetPoint" />
          </mxGeometry>
        </mxCell>
        <mxCell id="E2kGEfoMNPz0uAjkgJGs-81" value="" style="endArrow=none;html=1;rounded=0;exitX=1;exitY=0;exitDx=0;exitDy=0;" edge="1" parent="1" source="E2kGEfoMNPz0uAjkgJGs-78">
          <mxGeometry width="50" height="50" relative="1" as="geometry">
            <mxPoint x="710" y="790" as="sourcePoint" />
            <mxPoint x="860" y="780" as="targetPoint" />
          </mxGeometry>
        </mxCell>
        <mxCell id="E2kGEfoMNPz0uAjkgJGs-82" value="" style="endArrow=none;html=1;rounded=0;entryX=0.433;entryY=1.008;entryDx=0;entryDy=0;entryPerimeter=0;exitX=0.724;exitY=0.052;exitDx=0;exitDy=0;exitPerimeter=0;" edge="1" parent="1" source="E2kGEfoMNPz0uAjkgJGs-79" target="E2kGEfoMNPz0uAjkgJGs-73">
          <mxGeometry width="50" height="50" relative="1" as="geometry">
            <mxPoint x="710" y="870" as="sourcePoint" />
            <mxPoint x="760" y="820" as="targetPoint" />
          </mxGeometry>
        </mxCell>
        <mxCell id="E2kGEfoMNPz0uAjkgJGs-83" value="" style="endArrow=none;html=1;rounded=0;entryX=0.458;entryY=1.008;entryDx=0;entryDy=0;entryPerimeter=0;exitX=0.24;exitY=0.068;exitDx=0;exitDy=0;exitPerimeter=0;" edge="1" parent="1" source="E2kGEfoMNPz0uAjkgJGs-76" target="E2kGEfoMNPz0uAjkgJGs-73">
          <mxGeometry width="50" height="50" relative="1" as="geometry">
            <mxPoint x="710" y="870" as="sourcePoint" />
            <mxPoint x="760" y="820" as="targetPoint" />
          </mxGeometry>
        </mxCell>
        <mxCell id="E2kGEfoMNPz0uAjkgJGs-84" value="" style="endArrow=none;html=1;rounded=0;entryX=0.478;entryY=1.015;entryDx=0;entryDy=0;entryPerimeter=0;exitX=0;exitY=0;exitDx=0;exitDy=0;" edge="1" parent="1" source="E2kGEfoMNPz0uAjkgJGs-75" target="E2kGEfoMNPz0uAjkgJGs-73">
          <mxGeometry width="50" height="50" relative="1" as="geometry">
            <mxPoint x="830" y="870" as="sourcePoint" />
            <mxPoint x="880" y="820" as="targetPoint" />
          </mxGeometry>
        </mxCell>
        <mxCell id="E2kGEfoMNPz0uAjkgJGs-85" value="" style="endArrow=none;html=1;rounded=0;entryX=0.5;entryY=1;entryDx=0;entryDy=0;exitX=0;exitY=0.4;exitDx=0;exitDy=0;exitPerimeter=0;" edge="1" parent="1" source="E2kGEfoMNPz0uAjkgJGs-77" target="E2kGEfoMNPz0uAjkgJGs-73">
          <mxGeometry width="50" height="50" relative="1" as="geometry">
            <mxPoint x="830" y="870" as="sourcePoint" />
            <mxPoint x="880" y="820" as="targetPoint" />
          </mxGeometry>
        </mxCell>
      </root>
    </mxGraphModel>
  </diagram>
</mxfile>
